<svg xmlns="http://www.w3.org/2000/svg" width="900" height="560" viewBox="0 0 900 560">
<rect width="100%" height="100%" fill="white"/>
<text x="450.0" y="32" text-anchor="middle" font-family="Arial" font-size="22" font-weight="bold">Sybil stress test on a path</text>
<line x1="90" y1="480" x2="710" y2="480" stroke="#222" stroke-width="2"/>
<line x1="90" y1="60" x2="90" y2="480" stroke="#222" stroke-width="2"/>
<line x1="90.0" y1="480" x2="90.0" y2="486" stroke="#222"/>
<text x="90.0" y="504" text-anchor="middle" font-family="Arial" font-size="13">0</text>
<line x1="84" y1="480.0" x2="90" y2="480.0" stroke="#222"/>
<text x="80" y="484.0" text-anchor="end" font-family="Arial" font-size="13">-1900.0</text>
<line x1="90" y1="480.0" x2="710" y2="480.0" stroke="#eee"/>
<line x1="214.0" y1="480" x2="214.0" y2="486" stroke="#222"/>
<text x="214.0" y="504" text-anchor="middle" font-family="Arial" font-size="13">2</text>
<line x1="84" y1="396.0" x2="90" y2="396.0" stroke="#222"/>
<text x="80" y="400.0" text-anchor="end" font-family="Arial" font-size="13">-1520.0</text>
<line x1="90" y1="396.0" x2="710" y2="396.0" stroke="#eee"/>
<line x1="338.0" y1="480" x2="338.0" y2="486" stroke="#222"/>
<text x="338.0" y="504" text-anchor="middle" font-family="Arial" font-size="13">3</text>
<line x1="84" y1="312.0" x2="90" y2="312.0" stroke="#222"/>
<text x="80" y="316.0" text-anchor="end" font-family="Arial" font-size="13">-1140.0</text>
<line x1="90" y1="312.0" x2="710" y2="312.0" stroke="#eee"/>
<line x1="462.0" y1="480" x2="462.0" y2="486" stroke="#222"/>
<text x="462.0" y="504" text-anchor="middle" font-family="Arial" font-size="13">5</text>
<line x1="84" y1="228.0" x2="90" y2="228.0" stroke="#222"/>
<text x="80" y="232.0" text-anchor="end" font-family="Arial" font-size="13">-760.0</text>
<line x1="90" y1="228.0" x2="710" y2="228.0" stroke="#eee"/>
<line x1="586.0" y1="480" x2="586.0" y2="486" stroke="#222"/>
<text x="586.0" y="504" text-anchor="middle" font-family="Arial" font-size="13">6</text>
<line x1="84" y1="144.0" x2="90" y2="144.0" stroke="#222"/>
<text x="80" y="148.0" text-anchor="end" font-family="Arial" font-size="13">-380.0</text>
<line x1="90" y1="144.0" x2="710" y2="144.0" stroke="#eee"/>
<line x1="710.0" y1="480" x2="710.0" y2="486" stroke="#222"/>
<text x="710.0" y="504" text-anchor="middle" font-family="Arial" font-size="13">8</text>
<line x1="84" y1="60.0" x2="90" y2="60.0" stroke="#222"/>
<text x="80" y="64.0" text-anchor="end" font-family="Arial" font-size="13">0.0</text>
<line x1="90" y1="60.0" x2="710" y2="60.0" stroke="#eee"/>
<text x="400.0" y="535" text-anchor="middle" font-family="Arial" font-size="16">inserted sybil identities</text>
<text transform="translate(24,270.0) rotate(-90)" text-anchor="middle" font-family="Arial" font-size="16">seller revenue mean</text>
<polyline points="90.0,60.0 167.5,60.0 245.0,60.0 322.5,60.0 400.0,60.0 477.5,60.0 555.0,60.0 632.5,60.0 710.0,60.0" fill="none" stroke="#1f77b4" stroke-width="3"/>
<circle cx="90.0" cy="60.0" r="4" fill="#1f77b4"/>
<circle cx="167.5" cy="60.0" r="4" fill="#1f77b4"/>
<circle cx="245.0" cy="60.0" r="4" fill="#1f77b4"/>
<circle cx="322.5" cy="60.0" r="4" fill="#1f77b4"/>
<circle cx="400.0" cy="60.0" r="4" fill="#1f77b4"/>
<circle cx="477.5" cy="60.0" r="4" fill="#1f77b4"/>
<circle cx="555.0" cy="60.0" r="4" fill="#1f77b4"/>
<circle cx="632.5" cy="60.0" r="4" fill="#1f77b4"/>
<circle cx="710.0" cy="60.0" r="4" fill="#1f77b4"/>
<line x1="735" y1="85" x2="765" y2="85" stroke="#1f77b4" stroke-width="3"/>
<text x="772" y="90" font-family="Arial" font-size="13">IDM</text>
<polyline points="90.0,303.2 167.5,325.3 245.0,347.4 322.5,369.5 400.0,391.6 477.5,413.7 555.0,435.8 632.5,457.9 710.0,480.0" fill="none" stroke="#d62728" stroke-width="3"/>
<circle cx="90.0" cy="303.2" r="4" fill="#d62728"/>
<circle cx="167.5" cy="325.3" r="4" fill="#d62728"/>
<circle cx="245.0" cy="347.4" r="4" fill="#d62728"/>
<circle cx="322.5" cy="369.5" r="4" fill="#d62728"/>
<circle cx="400.0" cy="391.6" r="4" fill="#d62728"/>
<circle cx="477.5" cy="413.7" r="4" fill="#d62728"/>
<circle cx="555.0" cy="435.8" r="4" fill="#d62728"/>
<circle cx="632.5" cy="457.9" r="4" fill="#d62728"/>
<circle cx="710.0" cy="480.0" r="4" fill="#d62728"/>
<line x1="735" y1="109" x2="765" y2="109" stroke="#d62728" stroke-width="3"/>
<text x="772" y="114" font-family="Arial" font-size="13">Network-VCG</text>
<polyline points="90.0,297.9 167.5,319.5 245.0,341.2 322.5,362.8 400.0,384.5 477.5,406.2 555.0,427.8 632.5,449.5 710.0,471.2" fill="none" stroke="#2ca02c" stroke-width="3"/>
<circle cx="90.0" cy="297.9" r="4" fill="#2ca02c"/>
<circle cx="167.5" cy="319.5" r="4" fill="#2ca02c"/>
<circle cx="245.0" cy="341.2" r="4" fill="#2ca02c"/>
<circle cx="322.5" cy="362.8" r="4" fill="#2ca02c"/>
<circle cx="400.0" cy="384.5" r="4" fill="#2ca02c"/>
<circle cx="477.5" cy="406.2" r="4" fill="#2ca02c"/>
<circle cx="555.0" cy="427.8" r="4" fill="#2ca02c"/>
<circle cx="632.5" cy="449.5" r="4" fill="#2ca02c"/>
<circle cx="710.0" cy="471.2" r="4" fill="#2ca02c"/>
<line x1="735" y1="133" x2="765" y2="133" stroke="#2ca02c" stroke-width="3"/>
<text x="772" y="138" font-family="Arial" font-size="13">Tax-Network-VCG</text>
</svg>